<mxfile host="app.diagrams.net" agent="Mozilla/5.0 (X11; Linux x86_64) AppleWebKit/537.36 (KHTML, like Gecko) Chrome/128.0.0.0 Safari/537.36" version="24.7.10">
  <diagram name="Page-1" id="H5a1Z-vCB2arcf4HiSrT">
    <mxGraphModel dx="3354" dy="1866" grid="0" gridSize="10" guides="1" tooltips="1" connect="1" arrows="1" fold="1" page="1" pageScale="1" pageWidth="850" pageHeight="1100" math="0" shadow="0">
      <root>
        <mxCell id="0" />
        <mxCell id="1" parent="0" />
        <mxCell id="DIR8rWEXWdB0a0Ycgx8Z-7" style="edgeStyle=orthogonalEdgeStyle;rounded=0;orthogonalLoop=1;jettySize=auto;html=1;entryX=0;entryY=0.5;entryDx=0;entryDy=0;" edge="1" parent="1" source="DIR8rWEXWdB0a0Ycgx8Z-2" target="DIR8rWEXWdB0a0Ycgx8Z-4">
          <mxGeometry relative="1" as="geometry" />
        </mxCell>
        <mxCell id="DIR8rWEXWdB0a0Ycgx8Z-2" value="" style="whiteSpace=wrap;html=1;aspect=fixed;fillColor=#a20025;fontColor=#ffffff;strokeColor=#6F0000;" vertex="1" parent="1">
          <mxGeometry x="170" y="390" width="230" height="230" as="geometry" />
        </mxCell>
        <mxCell id="DIR8rWEXWdB0a0Ycgx8Z-1" value="Authentication Svc" style="rounded=1;whiteSpace=wrap;html=1;fillColor=#0050ef;fontColor=#ffffff;strokeColor=#001DBC;" vertex="1" parent="1">
          <mxGeometry x="210" y="440" width="150" height="130" as="geometry" />
        </mxCell>
        <mxCell id="DIR8rWEXWdB0a0Ycgx8Z-3" value="auth.skrao.net" style="text;html=1;align=center;verticalAlign=middle;whiteSpace=wrap;rounded=0;" vertex="1" parent="1">
          <mxGeometry x="250" y="630" width="60" height="30" as="geometry" />
        </mxCell>
        <mxCell id="DIR8rWEXWdB0a0Ycgx8Z-4" value="" style="whiteSpace=wrap;html=1;aspect=fixed;fillColor=#d80073;fontColor=#ffffff;strokeColor=#A50040;" vertex="1" parent="1">
          <mxGeometry x="330" y="20" width="230" height="230" as="geometry" />
        </mxCell>
        <mxCell id="DIR8rWEXWdB0a0Ycgx8Z-5" value="openLDAP" style="rounded=1;whiteSpace=wrap;html=1;fillColor=#0050ef;fontColor=#ffffff;strokeColor=#001DBC;" vertex="1" parent="1">
          <mxGeometry x="370" y="70" width="150" height="130" as="geometry" />
        </mxCell>
        <mxCell id="DIR8rWEXWdB0a0Ycgx8Z-6" value="ldap.skrao.net" style="text;html=1;align=center;verticalAlign=middle;whiteSpace=wrap;rounded=0;" vertex="1" parent="1">
          <mxGeometry x="410" y="260" width="60" height="30" as="geometry" />
        </mxCell>
        <mxCell id="DIR8rWEXWdB0a0Ycgx8Z-9" value="" style="whiteSpace=wrap;html=1;aspect=fixed;fillColor=#a20025;fontColor=#ffffff;strokeColor=#6F0000;" vertex="1" parent="1">
          <mxGeometry x="595" y="400" width="230" height="230" as="geometry" />
        </mxCell>
        <mxCell id="DIR8rWEXWdB0a0Ycgx8Z-14" style="edgeStyle=orthogonalEdgeStyle;rounded=0;orthogonalLoop=1;jettySize=auto;html=1;" edge="1" parent="1" source="DIR8rWEXWdB0a0Ycgx8Z-10" target="DIR8rWEXWdB0a0Ycgx8Z-1">
          <mxGeometry relative="1" as="geometry" />
        </mxCell>
        <mxCell id="DIR8rWEXWdB0a0Ycgx8Z-10" value="external-authz (grpc)" style="rounded=1;whiteSpace=wrap;html=1;fillColor=#0050ef;fontColor=#ffffff;strokeColor=#001DBC;" vertex="1" parent="1">
          <mxGeometry x="640" y="420" width="150" height="70" as="geometry" />
        </mxCell>
        <mxCell id="DIR8rWEXWdB0a0Ycgx8Z-11" value="api.skrao.net" style="text;html=1;align=center;verticalAlign=middle;whiteSpace=wrap;rounded=0;" vertex="1" parent="1">
          <mxGeometry x="680" y="640" width="60" height="30" as="geometry" />
        </mxCell>
        <mxCell id="DIR8rWEXWdB0a0Ycgx8Z-13" style="edgeStyle=orthogonalEdgeStyle;rounded=0;orthogonalLoop=1;jettySize=auto;html=1;" edge="1" parent="1" source="DIR8rWEXWdB0a0Ycgx8Z-12" target="DIR8rWEXWdB0a0Ycgx8Z-10">
          <mxGeometry relative="1" as="geometry" />
        </mxCell>
        <mxCell id="DIR8rWEXWdB0a0Ycgx8Z-12" value="Envoy Proxy" style="rounded=1;whiteSpace=wrap;html=1;fillColor=#0050ef;fontColor=#ffffff;strokeColor=#001DBC;" vertex="1" parent="1">
          <mxGeometry x="640" y="540" width="150" height="70" as="geometry" />
        </mxCell>
        <mxCell id="DIR8rWEXWdB0a0Ycgx8Z-16" style="edgeStyle=orthogonalEdgeStyle;rounded=0;orthogonalLoop=1;jettySize=auto;html=1;" edge="1" parent="1" source="DIR8rWEXWdB0a0Ycgx8Z-15" target="DIR8rWEXWdB0a0Ycgx8Z-12">
          <mxGeometry relative="1" as="geometry" />
        </mxCell>
        <mxCell id="DIR8rWEXWdB0a0Ycgx8Z-15" value="Browser" style="shape=cube;whiteSpace=wrap;html=1;boundedLbl=1;backgroundOutline=1;darkOpacity=0.05;darkOpacity2=0.1;" vertex="1" parent="1">
          <mxGeometry x="425" y="810" width="120" height="80" as="geometry" />
        </mxCell>
      </root>
    </mxGraphModel>
  </diagram>
</mxfile>
